<svg width="512" height="512" viewBox="0 0 512 512" fill="none" xmlns="http://www.w3.org/2000/svg">\n  <!-- Background Gradient -->\n  <defs>\n    <linearGradient id="bg-gradient" x1="0%" y1="0%" x2="100%" y2="100%">\n      <stop offset="0%" style="stop-color:#4F46E5;stop-opacity:1" />\n      <stop offset="100%" style="stop-color:#3B82F6;stop-opacity:1" />\n    </linearGradient>\n    <linearGradient id="accent-gradient" x1="0%" y1="0%" x2="100%" y2="100%">\n      <stop offset="0%" style="stop-color:#F59E0B;stop-opacity:1" />\n      <stop offset="100%" style="stop-color:#EF4444;stop-opacity:1" />\n    </linearGradient>\n  </defs>\n  \n  <!-- Background -->\n  <rect width="512" height="512" rx="80" fill="url(#bg-gradient)"/>\n  \n  <!-- Main Icon Container -->\n  <g transform="translate(96, 96)">\n    <!-- Dumbbell Base -->\n    <g transform="translate(0, 120)">\n      <!-- Left Weight -->\n      <rect x="0" y="40" width="60" height="80" rx="8" fill="white"/>\n      <rect x="10" y="50" width="40" height="60" rx="4" fill="#E5E7EB"/>\n      \n      <!-- Right Weight -->\n      <rect x="260" y="40" width="60" height="80" rx="8" fill="white"/>\n      <rect x="270" y="50" width="40" height="60" rx="4" fill="#E5E7EB"/>\n      \n      <!-- Handle -->\n      <rect x="60" y="65" width="200" height="30" rx="15" fill="white"/>\n      <rect x="70" y="70" width="180" height="20" rx="10" fill="#F3F4F6"/>\n    </g>\n    \n    <!-- YT Letters -->\n    <g transform="translate(50, 20)" fill="white">\n      <!-- Y Letter -->\n      <g transform="translate(0, 0)">\n        <path d="M0 0L30 50L60 0" stroke="white" stroke-width="12" stroke-linecap="round" stroke-linejoin="round" fill="none"/>\n        <path d="M30 50L30 100" stroke="white" stroke-width="12" stroke-linecap="round" fill="none"/>\n      </g>\n      \n      <!-- T Letter -->\n      <g transform="translate(120, 0)">\n        <path d="M0 0L100 0" stroke="white" stroke-width="12" stroke-linecap="round" fill="none"/>\n        <path d="M50 0L50 100" stroke="white" stroke-width="12" stroke-linecap="round" fill="none"/>\n      </g>\n    </g>\n    \n    <!-- Accent Elements -->\n    <circle cx="40" cy="40" r="8" fill="url(#accent-gradient)"/>\n    <circle cx="280" cy="40" r="8" fill="url(#accent-gradient)"/>\n    <circle cx="160" cy="280" r="12" fill="url(#accent-gradient)"/>\n  </g>\n  \n  <!-- Bottom Text (Optional) -->\n  <g transform="translate(156, 420)" fill="white" opacity="0.8">\n    <text x="100" y="20" text-anchor="middle" font-family="Arial, sans-serif" font-size="24" font-weight="bold">TRAINER</text>\n  </g>\n</svg>